<?xml version="1.0" encoding="UTF-8"?><svg xmlns="http://www.w3.org/2000/svg" width="1280" height="720" viewBox="0 0 1280 720"><defs>
    <linearGradient id="bg" x1="0" y1="0" x2="1" y2="1">
      <stop offset="0%" stop-color="#0b1016"/>
      <stop offset="100%" stop-color="#17212c"/>
    </linearGradient>
    <linearGradient id="panel" x1="0" y1="0" x2="1" y2="1">
      <stop offset="0%" stop-color="#1a2330" stop-opacity="0.96"/>
      <stop offset="100%" stop-color="#111923" stop-opacity="0.92"/>
    </linearGradient>
    <radialGradient id="glow" cx="72%" cy="18%" r="60%">
      <stop offset="0%" stop-color="#69c1ff" stop-opacity="0.22"/>
      <stop offset="100%" stop-color="#69c1ff" stop-opacity="0"/>
    </radialGradient>
  </defs><rect width="1280" height="720" fill="url(#bg)"/><rect width="1280" height="720" fill="url(#glow)"/><g stroke="#243243" stroke-opacity="0.38">
    <path d="M0 44h1280"/><path d="M0 88h1280"/><path d="M0 132h1280"/><path d="M0 176h1280"/>
    <path d="M0 220h1280"/><path d="M0 264h1280"/><path d="M0 308h1280"/><path d="M0 352h1280"/>
    <path d="M0 396h1280"/><path d="M0 440h1280"/><path d="M0 484h1280"/><path d="M0 528h1280"/>
    <path d="M0 572h1280"/><path d="M0 616h1280"/><path d="M0 660h1280"/>
    <path d="M64 0v720"/><path d="M128 0v720"/><path d="M192 0v720"/><path d="M256 0v720"/>
    <path d="M320 0v720"/><path d="M384 0v720"/><path d="M448 0v720"/><path d="M512 0v720"/>
    <path d="M576 0v720"/><path d="M640 0v720"/><path d="M704 0v720"/><path d="M768 0v720"/>
    <path d="M832 0v720"/><path d="M896 0v720"/><path d="M960 0v720"/><path d="M1024 0v720"/>
    <path d="M1088 0v720"/><path d="M1152 0v720"/><path d="M1216 0v720"/>
  </g><rect x="44" y="44" width="1192" height="632" rx="18" fill="none" stroke="#2d3a49" stroke-width="2"/><text x="78" y="96" fill="#eff3f7" font-family="IBM Plex Sans Condensed, IBM Plex Sans, sans-serif" font-size="20" letter-spacing="5">ALTIRA FLASHPOINT</text><text x="78" y="132" fill="#69c1ff" font-family="IBM Plex Mono, monospace" font-size="13" letter-spacing="2">INVASION TAIL // COASTAL MOVEMENT</text><text x="78" y="188" fill="#f3f4f1" font-family="IBM Plex Sans Condensed, IBM Plex Sans, sans-serif" font-size="42">The Worst Branch Stops Feeling Hypothetical</text><text x="78" y="228" fill="#9faabb" font-family="IBM Plex Sans, sans-serif" font-size="18">This is no longer about pressure. It is about changing the map before the coalition can recover.</text><rect x="86" y="278" width="1108" height="346" rx="22" fill="url(#panel)" stroke="#314659"/><rect x="156" y="338" width="268" height="204" rx="22" fill="#18212b" stroke="#36506a"/><path d="M275 350l45 26 -8 48 22 46 15 58 -18 56 -36 62 -73 9 -51 -30 5 -73 -20 -48 26 -68 -2 -52 31 -48 36 -33z" fill="#33445b" stroke="#7eceff" stroke-width="4"/><text x="238" y="322" fill="#e8eef3" font-family="IBM Plex Sans Condensed, sans-serif" font-size="26">TAIWAN</text><path d="M614 356c210 -8 294 18 398 158" fill="none" stroke="#ffb429" stroke-width="6" stroke-dasharray="14 12"/><path d="M622 554c246 0 342 -74 342 -176" fill="none" stroke="#69c1ff" stroke-width="7" stroke-dasharray="16 14"/><text x="614" y="322" fill="#9fd2ff" font-family="IBM Plex Mono, monospace" font-size="14">Mass movement appears along the coast and across the approaches</text><text x="614" y="372" fill="#f2f5f7" font-family="IBM Plex Sans, sans-serif" font-size="22">Maps matter here because location changes who can move, who can board, and which ships get scared first.</text><text x="78" y="650" fill="#8f9aa8" font-family="IBM Plex Sans, sans-serif" font-size="17">LIVE SCENE ASSET // This is no longer about pressure. It is about changing the map before the coalition can recover.</text></svg>