<?xml version="1.0" encoding="UTF-8"?><svg xmlns="http://www.w3.org/2000/svg" width="1280" height="720" viewBox="0 0 1280 720"><defs>
    <linearGradient id="bg" x1="0" y1="0" x2="1" y2="1">
      <stop offset="0%" stop-color="#0b1016"/>
      <stop offset="100%" stop-color="#17212c"/>
    </linearGradient>
    <linearGradient id="panel" x1="0" y1="0" x2="1" y2="1">
      <stop offset="0%" stop-color="#1a2330" stop-opacity="0.96"/>
      <stop offset="100%" stop-color="#111923" stop-opacity="0.92"/>
    </linearGradient>
    <radialGradient id="glow" cx="72%" cy="18%" r="60%">
      <stop offset="0%" stop-color="#69c1ff" stop-opacity="0.22"/>
      <stop offset="100%" stop-color="#69c1ff" stop-opacity="0"/>
    </radialGradient>
  </defs><rect width="1280" height="720" fill="url(#bg)"/><rect width="1280" height="720" fill="url(#glow)"/><g stroke="#243243" stroke-opacity="0.38">
    <path d="M0 44h1280"/><path d="M0 88h1280"/><path d="M0 132h1280"/><path d="M0 176h1280"/>
    <path d="M0 220h1280"/><path d="M0 264h1280"/><path d="M0 308h1280"/><path d="M0 352h1280"/>
    <path d="M0 396h1280"/><path d="M0 440h1280"/><path d="M0 484h1280"/><path d="M0 528h1280"/>
    <path d="M0 572h1280"/><path d="M0 616h1280"/><path d="M0 660h1280"/>
    <path d="M64 0v720"/><path d="M128 0v720"/><path d="M192 0v720"/><path d="M256 0v720"/>
    <path d="M320 0v720"/><path d="M384 0v720"/><path d="M448 0v720"/><path d="M512 0v720"/>
    <path d="M576 0v720"/><path d="M640 0v720"/><path d="M704 0v720"/><path d="M768 0v720"/>
    <path d="M832 0v720"/><path d="M896 0v720"/><path d="M960 0v720"/><path d="M1024 0v720"/>
    <path d="M1088 0v720"/><path d="M1152 0v720"/><path d="M1216 0v720"/>
  </g><rect x="44" y="44" width="1192" height="632" rx="18" fill="none" stroke="#2d3a49" stroke-width="2"/><text x="78" y="96" fill="#eff3f7" font-family="IBM Plex Sans Condensed, IBM Plex Sans, sans-serif" font-size="20" letter-spacing="5">ALTIRA FLASHPOINT</text><text x="78" y="132" fill="#69c1ff" font-family="IBM Plex Mono, monospace" font-size="13" letter-spacing="2">ENERGY DESK // BUFFER WATCH</text><text x="78" y="188" fill="#f3f4f1" font-family="IBM Plex Sans Condensed, IBM Plex Sans, sans-serif" font-size="42">Energy Buffer Becomes Part Of The Story</text><text x="78" y="228" fill="#9faabb" font-family="IBM Plex Sans, sans-serif" font-size="18">A thinner reserve changes how traders and politicians hear every new shock.</text><rect x="82" y="286" width="1116" height="330" rx="22" fill="url(#panel)" stroke="#314659"/><rect x="116" y="316" width="476" height="122" rx="12" fill="#101821" stroke="#2e4051"/><rect x="622" y="316" width="540" height="122" rx="12" fill="#101821" stroke="#2e4051"/><rect x="116" y="458" width="1046" height="126" rx="12" fill="#0c1218" stroke="#2e4051"/><path d="M144 540l72 -20 64 28 68 -46 72 18 86 -62 80 14 92 -74" fill="none" stroke="#ff5e70" stroke-width="5"/><path d="M144 508l64 -12 74 8 66 -18 88 10 82 -20 98 12 76 -28" fill="none" stroke="#ffb429" stroke-width="4" stroke-opacity="0.75"/><text x="144" y="356" fill="#9fb8cf" font-family="IBM Plex Mono, monospace" font-size="13">MARKET WIRE</text><text x="144" y="394" fill="#f2f5f7" font-family="IBM Plex Sans Condensed, sans-serif" font-size="34">Oil and freight desks start treating Taiwan as an energy story too.</text><text x="650" y="356" fill="#9fb8cf" font-family="IBM Plex Mono, monospace" font-size="13">LIVE REACTION</text><text x="650" y="394" fill="#f2f5f7" font-family="IBM Plex Sans, sans-serif" font-size="22">Insurers widen cover. Freight desks stop assuming the next sailing clears.</text><text x="78" y="650" fill="#8f9aa8" font-family="IBM Plex Sans, sans-serif" font-size="17">LIVE SCENE ASSET // A thinner reserve changes how traders and politicians hear every new shock.</text></svg>